# xmcd
#
# Track frame offsets: 
#        150
#        21222
#        35414
#        49136
#        68815
#        82530
#        96982
#        113584
#        126988
#        141971
#        154578
#        171836
#        186054
#        201559
#        214792
#        228991
#        244916
#        262689
#        278400
#        297788
#        319311
#        332537
#
# Disc length: 4707 seconds
#
# Revision: 0
# Processed by: cddbd v1.5.2PL0 Copyright (c) Steve Scherf et al.
# Submitted via: ExactAudioCopyFreeDBPlugin 1.0
#
DISCID=34126116
DTITLE=Mireille Mathieu - Greatest Hits [CD2)
DYEAR=2008
DGENRE=Chanson
TTITLE0=Bravo, Tu As Gagne
TTITLE1=Mille Fois Bravo
TTITLE2=Ciao Mon Coeur
TTITLE3=On Ne Vit Pas Sans Se Dire Adieu
TTITLE4=Mon Bel Amour D'Ete
TTITLE5=Qu'Attends-Tu De Moi
TTITLE6=Je T'Aime Avec Ma Peau
TTITLE7=Porquoi Le Monde Est Sans Amour
TTITLE8=On Peut Encore Mourir D'Amour
TTITLE9=La Bonne Annee 
TTITLE10=Nos Souvenirs
TTITLE11=C'est a Mayerling 
TTITLE12=Trois milliards de gens sur terre
TTITLE13=Les Yeux de l'Amour
TTITLE14=Les Avions, Les Oiseaux
TTITLE15=Made in France
TTITLE16=Rencontres de Femmes
TTITLE17=L'enfant Que Je n'ai Jamais Eu
TTITLE18=Ce Soir Je T'ai Perdu
TTITLE19=Vous Lui Direz
TTITLE20=Aujourd'hui, Je Reviens
TTITLE21=La Couleur de l'Or 
EXTD=
EXTT0=
EXTT1=
EXTT2=
EXTT3=
EXTT4=
EXTT5=
EXTT6=
EXTT7=
EXTT8=
EXTT9=
EXTT10=
EXTT11=
EXTT12=
EXTT13=
EXTT14=
EXTT15=
EXTT16=
EXTT17=
EXTT18=
EXTT19=
EXTT20=
EXTT21=
PLAYORDER=
